<?xml version="1.0" standalone="no"?>
<!DOCTYPE svg PUBLIC "-//W3C//DTD SVG 20010904//EN"
 "http://www.w3.org/TR/2001/REC-SVG-20010904/DTD/svg10.dtd">
<svg version="1.0" xmlns="http://www.w3.org/2000/svg"
 width="400.000000pt" height="400.000000pt" viewBox="0 0 400.000000 400.000000"
 preserveAspectRatio="xMidYMid meet">
<metadata>
Created by potrace 1.14, written by Peter Selinger 2001-2017
</metadata>
<g transform="translate(0.000000,400.000000) scale(0.100000,-0.100000)"
fill="#000000" stroke="none">
<path d="M1824 3574 c-165 -29 -257 -61 -358 -127 -49 -31 -186 -188 -186
-213 0 -3 -6 -20 -14 -37 -14 -32 -28 -83 -48 -167 -16 -71 -13 -313 5 -415
17 -93 21 -128 32 -230 4 -32 8 -62 10 -66 2 -3 7 -44 10 -90 6 -99 13 -153
25 -194 5 -16 12 -45 15 -64 3 -19 12 -46 19 -60 48 -94 63 -120 83 -150 22
-32 23 -42 23 -230 l-1 -196 -27 31 c-15 17 -35 46 -45 64 l-17 32 -83 -7
c-45 -3 -102 -10 -127 -15 -25 -5 -69 -11 -99 -15 -30 -4 -61 -9 -70 -11 -32
-8 -257 -54 -291 -60 -62 -10 -154 -46 -199 -77 -135 -92 -198 -221 -226 -460
-6 -52 -5 -61 16 -83 12 -13 29 -24 36 -24 8 0 35 -11 61 -25 26 -14 53 -25
60 -25 8 0 46 -11 85 -25 85 -29 242 -75 277 -81 14 -3 31 -7 38 -9 23 -8 247
-57 281 -61 19 -3 52 -9 75 -14 22 -5 68 -12 101 -15 33 -3 83 -10 110 -15 79
-14 132 -20 260 -27 227 -14 749 -7 855 11 47 8 170 26 213 31 23 3 67 11 97
17 30 6 59 11 63 10 7 -2 158 30 302 64 147 35 422 121 495 155 76 35 82 44
75 113 -29 286 -136 449 -335 514 -36 12 -78 23 -93 26 -27 5 -112 22 -252 51
-38 8 -90 17 -115 20 -25 3 -56 8 -70 10 -14 3 -36 8 -50 10 -14 3 -59 8 -102
11 l-76 6 -28 -43 c-65 -101 -64 -103 -64 117 0 195 0 197 25 230 14 18 25 37
25 43 0 6 5 11 10 11 6 0 10 5 10 11 0 5 11 35 25 65 14 30 25 60 25 67 0 7 7
31 15 55 9 24 17 85 20 135 3 51 9 115 14 142 6 28 12 77 16 110 3 33 14 110
24 170 25 152 24 434 -3 520 -44 143 -80 207 -171 297 -58 57 -180 126 -260
147 -179 46 -379 60 -521 35z"/>
</g>
</svg>
